<?xml version="1.0" encoding="UTF-8"?>
<svg width="1024px" height="580px" viewBox="0 0 1024 580" version="1.1" xmlns="http://www.w3.org/2000/svg" xmlns:xlink="http://www.w3.org/1999/xlink">
    <g id="BlastLead-Logo" stroke="none" stroke-width="1" fill="none" fill-rule="evenodd">
        <g id="Logo">
            <path d="M41.2,421.6 C54.9,421.6 68.3,419.4 81.4,414.9 C94.5,410.4 105.9,403.5 115.7,394.1 C125.5,384.7 133.2,372.9 138.9,358.5 C144.6,344.1 147.4,327.1 147.4,307.5 C147.4,287.9 144.6,270.9 138.9,256.5 C133.2,242.1 125.5,230.3 115.7,220.9 C105.9,211.5 94.5,204.6 81.4,200.1 C68.3,195.6 54.9,193.4 41.2,193.4 L0,193.4 L0,421.6 L41.2,421.6 Z" id="Path" fill="#BA784B"></path>
            <polygon id="Path" fill="#000450" points="119.7 386.9 199 386.9 199 351.3 119.7 351.3 119.7 261.4 199 261.4 199 225.8 84.1 225.8 84.1 422.4 119.7 422.4"></polygon>
            <polygon id="Path" fill="#000450" points="204.4 422.4 240 422.4 240 225.8 204.4 225.8"></polygon>
            <path d="M394.8,422.4 L329.6,311.4 L391.9,225.8 L348.8,225.8 L302.7,290.2 L302.7,225.8 L267.1,225.8 L267.1,422.4 L302.7,422.4 L302.7,356.8 L350.7,422.4 L394.8,422.4 Z" id="Path" fill="#000450"></path>
            <polygon id="Path" fill="#000450" points="477.7 387.8 401.9 387.8 401.9 340.1 474.7 340.1 474.7 304.6 401.9 304.6 401.9 260.4 477.7 260.4 477.7 224.9 366.3 224.9 366.3 423.3 477.7 423.3"></polygon>
            <path d="M546.7,423.3 L546.7,342.5 L600.5,342.5 L600.5,307 L546.7,307 L546.7,260.4 L610.6,260.4 L610.6,224.9 L511.1,224.9 L511.1,423.3 L546.7,423.3 Z" id="Path" fill="#000450"></path>
            <polygon id="Path" fill="#000450" points="711.1 423.3 711.1 387.8 649.5 387.8 649.5 224.9 613.9 224.9 613.9 423.3"></polygon>
            <polygon id="Path" fill="#000450" points="804.1 387.8 728.3 387.8 728.3 340.1 801.1 340.1 801.1 304.6 728.3 304.6 728.3 260.4 804.1 260.4 804.1 224.9 692.7 224.9 692.7 423.3 804.1 423.3"></polygon>
            <path d="M912.4,423.3 L912.4,387.8 L858.4,387.8 L858.4,337.6 L909.2,337.6 L909.2,302 L858.4,302 L858.4,260.4 L912.4,260.4 L912.4,224.9 L822.8,224.9 L822.8,423.3 L912.4,423.3 Z" id="Path" fill="#000450"></path>
            <polygon id="Path" fill="#000450" points="1024 423.3 1024 387.8 955.9 387.8 955.9 337.6 1020.7 337.6 1020.7 302 955.9 302 955.9 260.4 1024 260.4 1024 224.9 920.3 224.9 920.3 423.3"></polygon>
            <path d="M511.7,538.2 C522.1,538.2 531.4,536.5 539.5,533.2 C547.7,529.9 554.5,525.3 560,519.6 C565.5,513.8 569.6,507.1 572.4,499.3 C575.2,491.6 576.5,483.3 576.5,474.6 C576.5,465.9 575.2,457.6 572.4,449.9 C569.6,442.1 565.5,435.4 560,429.6 C554.5,423.9 547.7,419.4 539.5,416 C531.4,412.7 522.1,411 511.7,411 L511.7,411 C501.3,411 492,412.7 483.8,416 C475.6,419.4 468.8,423.9 463.3,429.6 C457.8,435.4 453.7,442.1 450.9,449.9 C448.1,457.6 446.7,465.9 446.7,474.6 C446.7,483.3 448.1,491.6 450.9,499.3 C453.7,507.1 457.8,513.8 463.3,519.6 C468.8,525.3 475.6,529.9 483.8,533.2 C492,536.5 501.3,538.2 511.7,538.2 L511.7,538.2 Z M511.7,511.2 C506,511.2 500.9,510.2 496.5,508.1 C492.1,506 488.5,503.1 485.6,499.4 C482.7,495.6 480.5,491.3 479,486.2 C477.5,481.2 476.8,475.7 476.8,469.7 C476.8,467.9 476.9,466.4 477,465.4 C477.2,464.3 477.3,463.1 477.5,461.7 C478,458.4 479,455.2 480.4,452.2 C481.8,449.2 483.8,446.5 486.3,444.1 C488.8,441.7 491.9,439.7 495.6,438.2 C499.3,436.7 503.6,435.9 508.5,435.9 C513.4,435.9 517.7,436.7 521.4,438.2 C525.1,439.7 528.2,441.7 530.7,444.1 C533.2,446.5 535.2,449.2 536.6,452.2 C538,455.2 539,458.4 539.5,461.7 C539.7,463.1 539.8,464.3 539.9,465.4 C540,466.5 540.1,467.9 540.1,469.7 C540.1,475.7 539.3,481.2 537.8,486.2 C536.3,491.3 534.1,495.6 531.2,499.4 C528.3,503.1 524.6,506 520.3,508.1 C515.9,510.2 510.2,511.2 502.8,511.2 C502.8,511.2 510.2,511.2 511.7,511.2 L511.7,511.2 Z" id="Shape" fill="#000450"></path>
            <path d="M675.2,537.7 L675.2,537.7 L675.2,525.5 C675.2,525.5 674.8,525.5 674.2,525.5 C673.5,525.5 672.9,525.5 672.3,525.5 L661.8,525.5 C656.7,525.5 652,525.2 647.9,524.5 C643.7,523.8 640,522.4 636.7,520.2 C633.4,518 630.7,514.8 628.5,510.7 C626.3,506.6 625.2,501.2 625.2,494.6 L625.2,411.5 L599.1,411.5 L599.1,494.6 C599.1,505.2 600.9,513.9 604.5,520.7 C608.1,527.6 613.1,532.9 619.6,536.7 C623.1,538.8 627,540.3 631.1,541.3 C635.2,542.3 639.4,542.9 643.5,543.3 C647.7,543.7 651.7,543.9 655.7,544 C659.6,544.1 663.3,544.1 666.5,544.1 L671.5,544.1 C672.7,544.1 673.7,544.1 674.3,544.1 C674.8,544.1 675.1,544.1 675.1,544.1 L675.2,537.7 Z" id="Path" fill="#000450"></path>
            <path d="M768.2,536.5 L788.2,536.5 L735.7,411.5 L712.9,411.5 L660.4,536.5 L680.4,536.5 L693.1,508.2 L755.5,508.2 L768.2,536.5 Z M724.3,437.6 L746.7,489.6 L701.9,489.6 L724.3,437.6 Z" id="Shape" fill="#000450"></path>
            <path d="M511.7,161.1 C527.2,161.1 539.9,148.3 539.9,132.7 C539.9,117.1 527.2,104.3 511.7,104.3 C496.2,104.3 483.4,117.1 483.4,132.7 C483.4,148.3 496.2,161.1 511.7,161.1 Z" id="Path" fill="#000450"></path>
            <path d="M427.1,108.6 C442.6,108.6 455.4,95.8 455.4,80.2 C455.4,64.6 442.6,51.8 427.1,51.8 C411.6,51.8 398.8,64.6 398.8,80.2 C398.8,95.8 411.6,108.6 427.1,108.6 Z" id="Path" fill="#000450"></path>
            <path d="M596.2,108.6 C611.7,108.6 624.5,95.8 624.5,80.2 C624.5,64.6 611.7,51.8 596.2,51.8 C580.7,51.8 567.9,64.6 567.9,80.2 C567.9,95.8 580.7,108.6 596.2,108.6 Z" id="Path" fill="#000450"></path>
            <path d="M427.1,108.6 C427.1,108.6 444.6,117.9 457.4,117.9 C470.1,117.9 488.9,133.4 511.7,133.4 C534.5,133.4 551.2,117.9 563.5,117.9 C575.7,117.9 596.2,108.6 596.2,108.6" id="Path" fill="#BA784B"></path>
            <path d="M427.1,82.7 L596.2,82.7" id="Path" stroke="#BA784B" stroke-width="20"></path>
        </g>
    </g>
</svg>
